<svg width="479" height="216" viewBox="0 0 479 216" fill="none" xmlns="http://www.w3.org/2000/svg">
<path d="M294.916 138.417V166.125C294.916 193.833 283.833 204.917 256.125 204.917H222.875C195.166 204.917 184.083 193.833 184.083 166.125V132.875C184.083 105.167 195.166 94.0833 222.875 94.0833H250.583" stroke="black" stroke-opacity="0.5" stroke-linecap="round" stroke-linejoin="round"/>
<path d="M211.792 155.042H245.042M211.792 177.208H233.959M294.917 138.417H272.75C256.125 138.417 250.584 132.875 250.584 116.25V94.0833L294.917 138.417Z" stroke="black" stroke-opacity="0.5" stroke-linecap="round" stroke-linejoin="round"/>
<path d="M7.15 49.15V47.65H18.8C21.7667 47.65 24.3 47.1833 26.4 46.25C28.5333 45.2833 30.2667 44 31.6 42.4C32.9667 40.7667 33.9667 38.95 34.6 36.95C35.2667 34.9167 35.6 32.8333 35.6 30.7C35.6 28.5 35.2667 26.4 34.6 24.4C33.9333 22.3667 32.9 20.5667 31.5 19C30.1333 17.4 28.4 16.15 26.3 15.25C24.2 14.35 21.7 13.9 18.8 13.9H7.15V12.4H18.6C21.8 12.4 24.5667 12.9 26.9 13.9C29.2333 14.9 31.1667 16.25 32.7 17.95C34.2333 19.65 35.3667 21.5833 36.1 23.75C36.8333 25.8833 37.2 28.0833 37.2 30.35V31C37.2 33.2 36.85 35.3833 36.15 37.55C35.45 39.6833 34.35 41.6333 32.85 43.4C31.35 45.1333 29.4167 46.5333 27.05 47.6C24.7167 48.6333 21.9 49.15 18.6 49.15H7.15ZM6.5 49.15V12.4H8.1V49.15H6.5ZM45.5855 49V23H46.8855V34.15H46.3855C46.3855 30.3833 47.2189 27.55 48.8855 25.65C50.5855 23.75 53.4355 22.8 57.4355 22.8H58.2855V24.3H57.0355C53.7355 24.3 51.2689 25.1333 49.6355 26.8C48.0022 28.4333 47.1855 30.8833 47.1855 34.15V49H45.5855ZM75.6273 49.8C73.494 49.8 71.594 49.4167 69.9273 48.65C68.294 47.85 66.9107 46.8 65.7773 45.5C64.6773 44.2 63.8273 42.75 63.2273 41.15C62.6607 39.5167 62.3773 37.85 62.3773 36.15V35.85C62.3773 34.1167 62.6773 32.4333 63.2773 30.8C63.8773 29.1667 64.744 27.7167 65.8773 26.45C67.0107 25.15 68.394 24.1167 70.0273 23.35C71.6607 22.5833 73.5273 22.2 75.6273 22.2C77.7273 22.2 79.594 22.5833 81.2273 23.35C82.8607 24.1167 84.244 25.15 85.3773 26.45C86.5107 27.7167 87.3773 29.1667 87.9773 30.8C88.5773 32.4333 88.8773 34.1167 88.8773 35.85V36.15C88.8773 37.85 88.5773 39.5167 87.9773 41.15C87.4107 42.75 86.5607 44.2 85.4273 45.5C84.3273 46.8 82.944 47.85 81.2773 48.65C79.644 49.4167 77.7607 49.8 75.6273 49.8ZM75.6273 48.3C78.1607 48.3 80.2773 47.7167 81.9773 46.55C83.7107 45.3833 85.0273 43.8667 85.9273 42C86.8273 40.1333 87.2773 38.1333 87.2773 36C87.2773 33.8 86.8107 31.7667 85.8773 29.9C84.9773 28.0333 83.6607 26.5333 81.9273 25.4C80.194 24.2667 78.094 23.7 75.6273 23.7C73.194 23.7 71.094 24.2667 69.3273 25.4C67.594 26.5333 66.2607 28.0333 65.3273 29.9C64.4273 31.7667 63.9773 33.8 63.9773 36C63.9773 38.1333 64.4273 40.1333 65.3273 42C66.2273 43.8667 67.544 45.3833 69.2773 46.55C71.0107 47.7167 73.1273 48.3 75.6273 48.3ZM97.3922 59V23H98.6922V34L97.8922 34.55C97.8922 32.2833 98.3755 30.2167 99.3422 28.35C100.342 26.4833 101.742 25 103.542 23.9C105.376 22.7667 107.542 22.2 110.042 22.2C112.042 22.2 113.826 22.5833 115.392 23.35C116.959 24.1167 118.276 25.15 119.342 26.45C120.409 27.75 121.209 29.2167 121.742 30.85C122.309 32.45 122.592 34.1167 122.592 35.85V36.15C122.592 37.7833 122.326 39.4 121.792 41C121.259 42.6 120.459 44.0667 119.392 45.4C118.359 46.7333 117.059 47.8 115.492 48.6C113.926 49.4 112.109 49.8 110.042 49.8C107.509 49.8 105.342 49.2167 103.542 48.05C101.742 46.85 100.359 45.3167 99.3922 43.45C98.4589 41.55 97.9922 39.55 97.9922 37.45L98.9922 40.7V59H97.3922ZM109.942 48.3C112.342 48.3 114.359 47.7167 115.992 46.55C117.659 45.35 118.909 43.8167 119.742 41.95C120.576 40.05 120.992 38.0667 120.992 36C120.992 33.8 120.559 31.7667 119.692 29.9C118.826 28.0333 117.559 26.5333 115.892 25.4C114.259 24.2667 112.276 23.7 109.942 23.7C107.742 23.7 105.809 24.1833 104.142 25.15C102.509 26.1167 101.226 27.4333 100.292 29.1C99.3589 30.7333 98.8922 32.5833 98.8922 34.65V37.35C98.8922 39.2833 99.3422 41.0833 100.242 42.75C101.142 44.4167 102.409 45.7667 104.042 46.8C105.709 47.8 107.676 48.3 109.942 48.3ZM139.791 59.1V57.6H142.341C143.541 57.6 144.591 57.45 145.491 57.15C146.424 56.8833 147.241 56.3667 147.941 55.6C148.641 54.8333 149.241 53.7 149.741 52.2L159.591 23H161.191L151.041 52.85C150.507 54.4167 149.807 55.65 148.941 56.55C148.107 57.4833 147.124 58.1333 145.991 58.5C144.857 58.9 143.607 59.1 142.241 59.1H139.791ZM149.341 48.3V46.8H151.991V48.3H149.341ZM148.891 48.3L139.291 23H140.941L150.491 48.3H148.891ZM179.241 49.8C177.107 49.8 175.207 49.4167 173.541 48.65C171.907 47.85 170.524 46.8 169.391 45.5C168.291 44.2 167.441 42.75 166.841 41.15C166.274 39.5167 165.991 37.85 165.991 36.15V35.85C165.991 34.1167 166.291 32.4333 166.891 30.8C167.491 29.1667 168.357 27.7167 169.491 26.45C170.624 25.15 172.007 24.1167 173.641 23.35C175.274 22.5833 177.141 22.2 179.241 22.2C181.341 22.2 183.207 22.5833 184.841 23.35C186.474 24.1167 187.857 25.15 188.991 26.45C190.124 27.7167 190.991 29.1667 191.591 30.8C192.191 32.4333 192.491 34.1167 192.491 35.85V36.15C192.491 37.85 192.191 39.5167 191.591 41.15C191.024 42.75 190.174 44.2 189.041 45.5C187.941 46.8 186.557 47.85 184.891 48.65C183.257 49.4167 181.374 49.8 179.241 49.8ZM179.241 48.3C181.774 48.3 183.891 47.7167 185.591 46.55C187.324 45.3833 188.641 43.8667 189.541 42C190.441 40.1333 190.891 38.1333 190.891 36C190.891 33.8 190.424 31.7667 189.491 29.9C188.591 28.0333 187.274 26.5333 185.541 25.4C183.807 24.2667 181.707 23.7 179.241 23.7C176.807 23.7 174.707 24.2667 172.941 25.4C171.207 26.5333 169.874 28.0333 168.941 29.9C168.041 31.7667 167.591 33.8 167.591 36C167.591 38.1333 168.041 40.1333 168.941 42C169.841 43.8667 171.157 45.3833 172.891 46.55C174.624 47.7167 176.741 48.3 179.241 48.3ZM209.855 49.7C206.689 49.7 204.305 48.7 202.705 46.7C201.105 44.6667 200.305 42.0333 200.305 38.8V23H201.905V39.2C201.905 41.8333 202.589 44 203.955 45.7C205.322 47.3667 207.339 48.2 210.005 48.2C212.739 48.2 214.872 47.35 216.405 45.65C217.939 43.9167 218.705 41.7 218.705 39V23H220.305V49H219.005V38.8H219.605C219.605 40.8667 219.239 42.7333 218.505 44.4C217.805 46.0333 216.739 47.3333 215.305 48.3C213.905 49.2333 212.122 49.7 209.955 49.7H209.855ZM231.181 49V23H232.481V34.15H231.981C231.981 30.3833 232.815 27.55 234.481 25.65C236.181 23.75 239.031 22.8 243.031 22.8H243.881V24.3H242.631C239.331 24.3 236.865 25.1333 235.231 26.8C233.598 28.4333 232.781 30.8833 232.781 34.15V49H231.181ZM262.521 49V46.3H264.921V49H262.521ZM275.371 59V23H276.671V34L275.871 34.55C275.871 32.2833 276.354 30.2167 277.321 28.35C278.321 26.4833 279.721 25 281.521 23.9C283.354 22.7667 285.521 22.2 288.021 22.2C290.021 22.2 291.804 22.5833 293.371 23.35C294.937 24.1167 296.254 25.15 297.321 26.45C298.387 27.75 299.187 29.2167 299.721 30.85C300.287 32.45 300.571 34.1167 300.571 35.85V36.15C300.571 37.7833 300.304 39.4 299.771 41C299.237 42.6 298.437 44.0667 297.371 45.4C296.337 46.7333 295.037 47.8 293.471 48.6C291.904 49.4 290.087 49.8 288.021 49.8C285.487 49.8 283.321 49.2167 281.521 48.05C279.721 46.85 278.337 45.3167 277.371 43.45C276.437 41.55 275.971 39.55 275.971 37.45L276.971 40.7V59H275.371ZM287.921 48.3C290.321 48.3 292.337 47.7167 293.971 46.55C295.637 45.35 296.887 43.8167 297.721 41.95C298.554 40.05 298.971 38.0667 298.971 36C298.971 33.8 298.537 31.7667 297.671 29.9C296.804 28.0333 295.537 26.5333 293.871 25.4C292.237 24.2667 290.254 23.7 287.921 23.7C285.721 23.7 283.787 24.1833 282.121 25.15C280.487 26.1167 279.204 27.4333 278.271 29.1C277.337 30.7333 276.871 32.5833 276.871 34.65V37.35C276.871 39.2833 277.321 41.0833 278.221 42.75C279.121 44.4167 280.387 45.7667 282.021 46.8C283.687 47.8 285.654 48.3 287.921 48.3ZM319.312 49.8C317.312 49.8 315.529 49.4167 313.962 48.65C312.395 47.8833 311.079 46.85 310.012 45.55C308.945 44.25 308.129 42.8 307.562 41.2C307.029 39.5667 306.762 37.8833 306.762 36.15V35.85C306.762 34.2167 307.029 32.6 307.562 31C308.095 29.4 308.879 27.9333 309.912 26.6C310.979 25.2667 312.295 24.2 313.862 23.4C315.429 22.6 317.245 22.2 319.312 22.2C321.879 22.2 324.045 22.8 325.812 24C327.612 25.1667 328.979 26.6833 329.912 28.55C330.879 30.4167 331.362 32.4167 331.362 34.55L330.362 31.7V12.5H331.962V49H330.662V37.45H331.462C331.462 39.6833 330.962 41.75 329.962 43.65C328.995 45.5167 327.595 47.0167 325.762 48.15C323.962 49.25 321.812 49.8 319.312 49.8ZM319.412 48.3C321.612 48.3 323.545 47.8167 325.212 46.85C326.879 45.8833 328.162 44.5833 329.062 42.95C329.995 41.2833 330.462 39.4167 330.462 37.35V34.65C330.462 32.7167 330.012 30.9167 329.112 29.25C328.212 27.5833 326.929 26.25 325.262 25.25C323.629 24.2167 321.679 23.7 319.412 23.7C317.012 23.7 314.995 24.3 313.362 25.5C311.729 26.6667 310.479 28.2 309.612 30.1C308.779 31.9667 308.362 33.9333 308.362 36C308.362 38.2 308.795 40.2333 309.662 42.1C310.529 43.9667 311.779 45.4667 313.412 46.6C315.079 47.7333 317.079 48.3 319.412 48.3ZM343.554 49V19.6C343.554 17.2 344.137 15.4167 345.304 14.25C346.504 13.0833 348.354 12.5 350.854 12.5H354.354V14H350.354C348.654 14 347.354 14.4333 346.454 15.3C345.587 16.1667 345.154 17.4 345.154 19V49H343.554ZM339.354 24.5V23.1H354.954V24.5H339.354ZM373.369 49V12.5H374.969V30.85L374.119 33.4C374.119 31.2667 374.485 29.3667 375.219 27.7C375.985 26.0333 377.102 24.7167 378.569 23.75C380.069 22.7833 381.919 22.3 384.119 22.3H384.219C387.485 22.3 389.952 23.3167 391.619 25.35C393.319 27.3833 394.169 30.0667 394.169 33.4V49H392.569V33C392.569 30.2667 391.835 28.05 390.369 26.35C388.935 24.65 386.835 23.8 384.069 23.8C381.269 23.8 379.052 24.6667 377.419 26.4C375.785 28.1 374.969 30.3333 374.969 33.1V49H373.369ZM415.068 49.8C412.901 49.8 411.018 49.4167 409.418 48.65C407.818 47.8833 406.501 46.85 405.468 45.55C404.434 44.2167 403.651 42.7333 403.118 41.1C402.618 39.4333 402.368 37.7333 402.368 36V35.7C402.368 34 402.618 32.35 403.118 30.75C403.651 29.15 404.434 27.7 405.468 26.4C406.534 25.1 407.834 24.0833 409.368 23.35C410.934 22.5833 412.734 22.2 414.768 22.2C417.301 22.2 419.451 22.7833 421.218 23.95C423.018 25.1167 424.384 26.6333 425.318 28.5C426.284 30.3333 426.768 32.2833 426.768 34.35V35.95H403.218V34.45H425.918L425.268 34.95C425.268 32.85 424.851 30.95 424.018 29.25C423.184 27.55 421.984 26.2 420.418 25.2C418.851 24.2 416.968 23.7 414.768 23.7C412.368 23.7 410.351 24.2667 408.718 25.4C407.118 26.5333 405.901 28.0167 405.068 29.85C404.268 31.6833 403.868 33.6833 403.868 35.85C403.868 38.05 404.268 40.1 405.068 42C405.901 43.8667 407.134 45.3833 408.768 46.55C410.434 47.7167 412.534 48.3 415.068 48.3C417.801 48.3 420.001 47.6667 421.668 46.4C423.334 45.1 424.368 43.5333 424.768 41.7H426.368C426.034 43.2667 425.368 44.6667 424.368 45.9C423.368 47.1 422.084 48.05 420.518 48.75C418.984 49.45 417.168 49.8 415.068 49.8ZM434.746 49V23H436.046V34.15H435.546C435.546 30.3833 436.379 27.55 438.046 25.65C439.746 23.75 442.596 22.8 446.596 22.8H447.446V24.3H446.196C442.896 24.3 440.429 25.1333 438.796 26.8C437.162 28.4333 436.346 30.8833 436.346 34.15V49H434.746ZM464.238 49.8C462.071 49.8 460.188 49.4167 458.588 48.65C456.988 47.8833 455.671 46.85 454.638 45.55C453.604 44.2167 452.821 42.7333 452.288 41.1C451.788 39.4333 451.538 37.7333 451.538 36V35.7C451.538 34 451.788 32.35 452.288 30.75C452.821 29.15 453.604 27.7 454.638 26.4C455.704 25.1 457.004 24.0833 458.538 23.35C460.104 22.5833 461.904 22.2 463.938 22.2C466.471 22.2 468.621 22.7833 470.388 23.95C472.188 25.1167 473.554 26.6333 474.488 28.5C475.454 30.3333 475.938 32.2833 475.938 34.35V35.95H452.388V34.45H475.088L474.438 34.95C474.438 32.85 474.021 30.95 473.188 29.25C472.354 27.55 471.154 26.2 469.588 25.2C468.021 24.2 466.138 23.7 463.938 23.7C461.538 23.7 459.521 24.2667 457.888 25.4C456.288 26.5333 455.071 28.0167 454.238 29.85C453.438 31.6833 453.038 33.6833 453.038 35.85C453.038 38.05 453.438 40.1 454.238 42C455.071 43.8667 456.304 45.3833 457.938 46.55C459.604 47.7167 461.704 48.3 464.238 48.3C466.971 48.3 469.171 47.6667 470.838 46.4C472.504 45.1 473.538 43.5333 473.938 41.7H475.538C475.204 43.2667 474.538 44.6667 473.538 45.9C472.538 47.1 471.254 48.05 469.688 48.75C468.154 49.45 466.338 49.8 464.238 49.8Z" fill="black" fill-opacity="0.5"/>
</svg>
