<svg width="100" height="100" viewBox="0 0 100 100" fill="none" xmlns="http://www.w3.org/2000/svg">
<g id="Asset: Logo">
<rect id="Asset: Layer" width="100" height="100" rx="30" fill="#18224F"/>
<path id="Asset: Logo 01" d="M18.4142 44.0711C22.3194 40.1658 28.6511 40.1658 32.5563 44.0711L64.5731 76.0878L63.1588 77.502C59.2536 81.4073 52.9219 81.4073 49.0167 77.502L16.9999 45.4853L18.4142 44.0711Z" fill="#ADCFD1"/>
<path id="Asset: Logo 02" d="M31.4142 37.0711C35.3194 33.1658 41.6511 33.1658 45.5563 37.0711L69.7112 61.226L68.297 62.6402C64.3918 66.5455 58.0601 66.5455 54.1549 62.6402L29.9999 38.4853L31.4142 37.0711Z" fill="#ADCFD1"/>
<path id="Asset: Logo 03" d="M39.4142 25.0711C43.3194 21.1658 49.6511 21.1658 53.5563 25.0711L85.5731 57.0878L84.1588 58.502C80.2536 62.4073 73.9219 62.4073 70.0167 58.502L37.9999 26.4853L39.4142 25.0711Z" fill="#ADCFD1"/>
</g>
</svg>
